#!OML:ASF F:\VICON\USERDATA\INSTALL\rory3\rory3.ASF
:FULLY-SPECIFIED
:DEGREES
1287
root 14.7032 17.8175 -8.81428 -3.69047 -80.2855 20.1185
lowerback 12.8291 5.09651 -0.103804
upperback 8.43673 6.17893 8.52453
thorax 0.780544 2.67454 8.31485
lowerneck -7.09793 -10.3094 -11.18
upperneck 32.2614 -16.9457 8.68989
head 13.8928 -7.93941 2.78605
rclavicle -1.90833e-014 -7.95139e-014
rhumerus 9.19632 8.3741 -94.3577
rradius 35.1039
rwrist -14.4022
rhand -14.7874 -18.8011
rfingers 7.12502
rthumb 11.3698 -48.4728
lclavicle -1.90833e-014 -7.95139e-014
lhumerus -29.5313 -26.9096 90.7176
lradius 76.8433
lwrist 71.099
lhand -16.7306 51.9277
lfingers 7.12502
lthumb 9.49529 -278.306
rfemur -36.086 -6.25979 16.6535
rtibia 37.0483
rfoot -16.1808 -4.92023
rtoes 8.03746
lfemur -32.6576 -1.15931 -23.3458
ltibia 26.8544
lfoot -8.54353 4.47052
ltoes -10.7494
1288
root 14.709 17.8146 -8.83952 -4.14445 -80.0058 20.3997
lowerback 12.9797 5.16438 0.104439
upperback 8.47433 6.28289 8.66929
thorax 0.731723 2.72674 8.32984
lowerneck -6.9783 -10.4725 -11.2099
upperneck 32.1885 -17.211 8.76792
head 13.8837 -8.04838 2.78115
rclavicle -2.06736e-014 -4.45278e-014
rhumerus 9.31965 9.00195 -94.4413
rradius 35.0766
rwrist -14.4939
rhand -14.3187 -18.2463
rfingers 7.12502
rthumb 11.8218 -47.8926
lclavicle -2.06736e-014 -4.45278e-014
lhumerus -29.5351 -26.3606 90.3626
lradius 76.596
lwrist 71.0487
lhand -15.8831 53.1472
lfingers 7.12502
lthumb 10.313 -277.126
rfemur -35.9638 -6.20173 16.5022
rtibia 37.2639
rfoot -16.3373 -4.77293
rtoes 9.24677
lfemur -32.4403 -1.42685 -23.3339
ltibia 26.713
lfoot -8.4638 4.54766
ltoes -10.6127
1289
root 14.7167 17.8119 -8.86814 -5.28139 -79.7167 21.5022
lowerback 13.0005 5.21382 0.1056
upperback 8.51303 6.34374 8.74601
thorax 0.745213 2.75389 8.40506
lowerneck -6.99774 -10.6153 -11.0792
upperneck 32.1726 -17.397 8.64222
head 13.8763 -8.12098 2.67742
rclavicle -4.92986e-014 -2.8625e-014
rhumerus 9.60214 9.41053 -94.7058
rradius 34.778
rwrist -14.5386
rhand -14.2902 -17.3994
rfingers 7.12502
rthumb 11.8493 -47.0442
lclavicle -4.92986e-014 -2.8625e-014
lhumerus -29.4868 -25.8168 90.047
lradius 76.4732
lwrist 71.2858
lhand -19.7624 52.7027
lfingers 7.12502
lthumb 6.56914 -277.419
rfemur -35.9924 -6.13776 16.2198
rtibia 37.4556
rfoot -16.5195 -4.72163
rtoes 10.1079
lfemur -32.3776 -1.62957 -23.493
ltibia 26.5897
lfoot -8.36688 4.57487
ltoes -10.4412
1290
root 14.7225 17.8079 -8.89662 -5.76267 -79.396 21.806
lowerback 13.1492 5.17438 0.140216
upperback 8.57693 6.28436 8.95934
thorax 0.724819 2.71418 8.62262
lowerneck -6.94359 -10.6548 -11.2906
upperneck 32.1806 -17.4099 8.5979
head 13.8889 -8.15455 2.69368
rclavicle -4.77083e-015 -6.67916e-014
rhumerus 9.82333 10.1849 -94.8538
rradius 34.45
rwrist -14.1413
rhand -14.6004 -17.2216
rfingers 7.12502
rthumb 11.5501 -46.8834
lclavicle -4.77083e-015 -6.67916e-014
lhumerus -29.5833 -25.0859 89.9448
lradius 76.5212
lwrist 71.8991
lhand -19.9585 52.5189
lfingers 7.12502
lthumb 6.37986 -277.597
rfemur -35.8365 -6.0193 16.0707
rtibia 37.6219
rfoot -16.7376 -4.90881
rtoes 9.63979
lfemur -32.1824 -1.71749 -23.5679
ltibia 26.5005
lfoot -8.28498 4.4341
ltoes -11.0938
1291
root 14.7249 17.8018 -8.92177 -6.17396 -79.1472 21.9773
lowerback 13.3769 5.16766 0.161733
upperback 8.61371 6.27185 9.22224
thorax 0.620048 2.69808 8.88916
lowerneck -6.79112 -10.7133 -11.6516
upperneck 32.1706 -17.4713 8.65411
head 13.9084 -8.21955 2.76931
rclavicle 4.29375e-014 3.81667e-014
rhumerus 9.92088 10.8667 -94.8925
rradius 34.1362
rwrist -13.6556
rhand -15.0198 -17.4021
rfingers 7.12502
rthumb 11.1457 -47.086
lclavicle 4.29375e-014 3.81667e-014
lhumerus -29.84 -24.3689 90.0267
lradius 76.6703
lwrist 72.1171
lhand -19.5809 52.3501
lfingers 7.12502
lthumb 6.74437 -277.777
rfemur -35.6087 -5.96075 16.0024
rtibia 37.758
rfoot -16.8626 -5.1376
rtoes 8.53725
lfemur -31.9047 -1.84671 -23.5873
ltibia 26.4328
lfoot -8.23773 4.37377
ltoes -11.7971
